<mxfile host="65bd71144e">
    <diagram id="md1nAkNrUsGZS8Y36WcH" name="Page-1">
        <mxGraphModel dx="626" dy="312" grid="1" gridSize="10" guides="1" tooltips="1" connect="1" arrows="1" fold="1" page="1" pageScale="1" pageWidth="850" pageHeight="1100" math="0" shadow="0">
            <root>
                <mxCell id="0"/>
                <mxCell id="1" parent="0"/>
                <mxCell id="3" value="" style="rounded=0;whiteSpace=wrap;html=1;fillColor=#6a00ff;fontColor=#ffffff;strokeColor=#3700CC;" parent="1" vertex="1">
                    <mxGeometry x="350" y="120" width="250" height="750" as="geometry"/>
                </mxCell>
                <mxCell id="4" value="&lt;font style=&quot;font-size: 35px;&quot;&gt;&lt;b&gt;&lt;u&gt;&lt;i&gt;Student&lt;/i&gt;&lt;/u&gt;&lt;/b&gt;&lt;/font&gt;" style="rounded=1;whiteSpace=wrap;html=1;fillColor=#0050ef;fontColor=#ffffff;strokeColor=#001DBC;" parent="1" vertex="1">
                    <mxGeometry x="405" y="60" width="140" height="60" as="geometry"/>
                </mxCell>
                <mxCell id="5" value="&lt;b&gt;&lt;i&gt;Legs&lt;/i&gt;&lt;/b&gt;" style="text;html=1;align=center;verticalAlign=middle;resizable=0;points=[];autosize=1;strokeColor=#A50040;fillColor=#d80073;fontSize=35;fontColor=#ffffff;" parent="1" vertex="1">
                    <mxGeometry x="420" y="150" width="110" height="60" as="geometry"/>
                </mxCell>
                <mxCell id="7" value="&lt;b&gt;&lt;i&gt;Hands&lt;/i&gt;&lt;/b&gt;" style="text;html=1;align=center;verticalAlign=middle;resizable=0;points=[];autosize=1;strokeColor=#A50040;fillColor=#d80073;fontSize=35;fontColor=#ffffff;" parent="1" vertex="1">
                    <mxGeometry x="410" y="220" width="130" height="60" as="geometry"/>
                </mxCell>
                <mxCell id="8" value="&lt;b&gt;&lt;i&gt;Height&lt;/i&gt;&lt;/b&gt;" style="text;html=1;align=center;verticalAlign=middle;resizable=0;points=[];autosize=1;strokeColor=#A50040;fillColor=#d80073;fontSize=35;fontColor=#ffffff;" parent="1" vertex="1">
                    <mxGeometry x="410" y="290" width="130" height="60" as="geometry"/>
                </mxCell>
                <mxCell id="9" value="&lt;b&gt;&lt;i&gt;Weight&lt;/i&gt;&lt;/b&gt;" style="text;html=1;align=center;verticalAlign=middle;resizable=0;points=[];autosize=1;strokeColor=#A50040;fillColor=#d80073;fontSize=35;fontColor=#ffffff;" parent="1" vertex="1">
                    <mxGeometry x="405" y="360" width="140" height="60" as="geometry"/>
                </mxCell>
                <mxCell id="10" value="&lt;b&gt;&lt;i&gt;Color&lt;/i&gt;&lt;/b&gt;" style="text;html=1;align=center;verticalAlign=middle;resizable=0;points=[];autosize=1;strokeColor=#A50040;fillColor=#d80073;fontSize=35;fontColor=#ffffff;" parent="1" vertex="1">
                    <mxGeometry x="420" y="430" width="110" height="60" as="geometry"/>
                </mxCell>
                <mxCell id="11" value="" style="endArrow=none;html=1;fontSize=35;strokeWidth=10;fillColor=#a20025;strokeColor=#6F0000;exitX=-0.002;exitY=0.546;exitDx=0;exitDy=0;exitPerimeter=0;entryX=1;entryY=0.547;entryDx=0;entryDy=0;entryPerimeter=0;" parent="1" source="3" target="3" edge="1">
                    <mxGeometry width="50" height="50" relative="1" as="geometry">
                        <mxPoint x="350" y="530" as="sourcePoint"/>
                        <mxPoint x="590" y="530" as="targetPoint"/>
                        <Array as="points">
                            <mxPoint x="500" y="530"/>
                        </Array>
                    </mxGeometry>
                </mxCell>
                <mxCell id="13" value="&lt;b&gt;&lt;i&gt;Eat()&lt;/i&gt;&lt;/b&gt;" style="text;html=1;align=center;verticalAlign=middle;resizable=0;points=[];autosize=1;strokeColor=#005700;fillColor=#008a00;fontSize=35;fontColor=#ffffff;" parent="1" vertex="1">
                    <mxGeometry x="425" y="560" width="100" height="60" as="geometry"/>
                </mxCell>
                <mxCell id="14" value="&lt;b&gt;&lt;i&gt;Sleep()&lt;/i&gt;&lt;/b&gt;" style="text;html=1;align=center;verticalAlign=middle;resizable=0;points=[];autosize=1;strokeColor=#005700;fillColor=#008a00;fontSize=35;fontColor=#ffffff;" parent="1" vertex="1">
                    <mxGeometry x="405" y="630" width="140" height="60" as="geometry"/>
                </mxCell>
                <mxCell id="15" value="&lt;b&gt;&lt;i&gt;Sit()&lt;/i&gt;&lt;/b&gt;" style="text;html=1;align=center;verticalAlign=middle;resizable=0;points=[];autosize=1;strokeColor=#005700;fillColor=#008a00;fontSize=35;fontColor=#ffffff;" parent="1" vertex="1">
                    <mxGeometry x="430" y="700" width="90" height="60" as="geometry"/>
                </mxCell>
                <mxCell id="16" value="&lt;b&gt;&lt;i&gt;Speak()&lt;/i&gt;&lt;/b&gt;" style="text;html=1;align=center;verticalAlign=middle;resizable=0;points=[];autosize=1;strokeColor=#005700;fillColor=#008a00;fontSize=35;fontColor=#ffffff;" parent="1" vertex="1">
                    <mxGeometry x="400" y="770" width="150" height="60" as="geometry"/>
                </mxCell>
                <mxCell id="20" value="" style="shape=curlyBracket;whiteSpace=wrap;html=1;rounded=1;flipH=1;labelPosition=right;verticalLabelPosition=middle;align=left;verticalAlign=middle;fontSize=35;rotation=-180;strokeWidth=5;fillColor=#a20025;fontColor=#ffffff;strokeColor=#6F0000;" parent="1" vertex="1">
                    <mxGeometry x="260" y="170" width="80" height="310" as="geometry"/>
                </mxCell>
                <mxCell id="21" value="" style="shape=curlyBracket;whiteSpace=wrap;html=1;rounded=1;flipH=1;labelPosition=right;verticalLabelPosition=middle;align=left;verticalAlign=middle;fontSize=35;rotation=-180;strokeWidth=5;fillColor=#a20025;fontColor=#ffffff;strokeColor=#6F0000;" parent="1" vertex="1">
                    <mxGeometry x="260" y="580" width="80" height="230" as="geometry"/>
                </mxCell>
                <mxCell id="22" value="&lt;b&gt;&lt;i&gt;Properties/&lt;br&gt;Attributes/&lt;br&gt;Data/&lt;br&gt;Data Members&lt;/i&gt;&lt;/b&gt;" style="text;html=1;align=center;verticalAlign=middle;resizable=0;points=[];autosize=1;strokeColor=#A50040;fillColor=#d80073;fontSize=35;fontColor=#ffffff;" parent="1" vertex="1">
                    <mxGeometry y="240" width="260" height="180" as="geometry"/>
                </mxCell>
                <mxCell id="25" value="&lt;i&gt;&lt;b&gt;Functions/&lt;br&gt;Behaviour&lt;br&gt;&lt;/b&gt;&lt;/i&gt;" style="text;html=1;align=center;verticalAlign=middle;resizable=0;points=[];autosize=1;strokeColor=#005700;fillColor=#008a00;fontSize=35;fontColor=#ffffff;" parent="1" vertex="1">
                    <mxGeometry x="65" y="645" width="200" height="100" as="geometry"/>
                </mxCell>
                <mxCell id="28" value="&lt;b&gt;&lt;i&gt;&lt;u&gt;Male&lt;/u&gt;&lt;/i&gt;&lt;/b&gt;" style="rounded=1;whiteSpace=wrap;html=1;strokeWidth=1;fontSize=35;fillColor=#fa6800;fontColor=#000000;strokeColor=#C73500;" parent="1" vertex="1">
                    <mxGeometry x="970" y="70" width="120" height="60" as="geometry"/>
                </mxCell>
                <mxCell id="29" value="" style="whiteSpace=wrap;html=1;aspect=fixed;strokeWidth=1;fontSize=35;fillColor=#6a00ff;fontColor=#ffffff;strokeColor=#3700CC;" parent="1" vertex="1">
                    <mxGeometry x="870" y="130" width="320" height="320" as="geometry"/>
                </mxCell>
                <mxCell id="32" value="&lt;b&gt;&lt;i&gt;&lt;u&gt;Female&lt;br&gt;&lt;/u&gt;&lt;/i&gt;&lt;/b&gt;" style="rounded=1;whiteSpace=wrap;html=1;strokeWidth=1;fontSize=35;fillColor=#fa6800;fontColor=#000000;strokeColor=#C73500;" parent="1" vertex="1">
                    <mxGeometry x="965" y="500" width="130" height="60" as="geometry"/>
                </mxCell>
                <mxCell id="33" value="" style="whiteSpace=wrap;html=1;aspect=fixed;strokeWidth=1;fontSize=35;fillColor=#6a00ff;fontColor=#ffffff;strokeColor=#3700CC;" parent="1" vertex="1">
                    <mxGeometry x="870" y="560" width="320" height="320" as="geometry"/>
                </mxCell>
                <mxCell id="34" value="&lt;b&gt;&lt;i&gt;Ram&lt;/i&gt;&lt;/b&gt;" style="text;html=1;align=center;verticalAlign=middle;resizable=0;points=[];autosize=1;strokeColor=#B20000;fillColor=#e51400;fontSize=35;fontColor=#ffffff;" parent="1" vertex="1">
                    <mxGeometry x="1340" y="320" width="100" height="60" as="geometry"/>
                </mxCell>
                <mxCell id="35" value="&lt;b&gt;&lt;i&gt;Rahul&lt;/i&gt;&lt;/b&gt;" style="text;html=1;align=center;verticalAlign=middle;resizable=0;points=[];autosize=1;strokeColor=#B20000;fillColor=#e51400;fontSize=35;fontColor=#ffffff;" parent="1" vertex="1">
                    <mxGeometry x="1330" y="460" width="120" height="60" as="geometry"/>
                </mxCell>
                <mxCell id="36" value="&lt;b&gt;&lt;i&gt;Jenny&lt;/i&gt;&lt;/b&gt;" style="text;html=1;align=center;verticalAlign=middle;resizable=0;points=[];autosize=1;strokeColor=#B20000;fillColor=#e51400;fontSize=35;fontColor=#ffffff;" parent="1" vertex="1">
                    <mxGeometry x="1330" y="390" width="120" height="60" as="geometry"/>
                </mxCell>
                <mxCell id="37" value="&lt;b&gt;&lt;i&gt;Nisha&lt;/i&gt;&lt;/b&gt;" style="text;html=1;align=center;verticalAlign=middle;resizable=0;points=[];autosize=1;strokeColor=#B20000;fillColor=#e51400;fontSize=35;fontColor=#ffffff;" parent="1" vertex="1">
                    <mxGeometry x="1330" y="530" width="120" height="60" as="geometry"/>
                </mxCell>
                <mxCell id="38" value="" style="shape=curlyBracket;whiteSpace=wrap;html=1;rounded=1;flipH=1;labelPosition=right;verticalLabelPosition=middle;align=left;verticalAlign=middle;strokeWidth=5;fontSize=35;fillColor=#a20025;fontColor=#ffffff;strokeColor=#6F0000;" parent="1" vertex="1">
                    <mxGeometry x="1460" y="360" width="40" height="200" as="geometry"/>
                </mxCell>
                <mxCell id="39" value="&lt;b&gt;Real World Entities/&lt;br&gt;Objects&lt;br&gt;&lt;/b&gt;" style="rounded=0;whiteSpace=wrap;html=1;strokeWidth=1;fontSize=35;fillColor=#1ba1e2;fontColor=#ffffff;strokeColor=#006EAF;" parent="1" vertex="1">
                    <mxGeometry x="1500" y="400" width="190" height="120" as="geometry"/>
                </mxCell>
                <mxCell id="40" value="" style="endArrow=classic;html=1;strokeWidth=5;fontSize=35;fillColor=#a20025;strokeColor=#6F0000;exitX=-0.029;exitY=0.498;exitDx=0;exitDy=0;exitPerimeter=0;entryX=1;entryY=0.25;entryDx=0;entryDy=0;" parent="1" source="34" target="29" edge="1">
                    <mxGeometry width="50" height="50" relative="1" as="geometry">
                        <mxPoint x="1240" y="430" as="sourcePoint"/>
                        <mxPoint x="1290" y="380" as="targetPoint"/>
                    </mxGeometry>
                </mxCell>
                <mxCell id="41" value="" style="endArrow=classic;html=1;strokeWidth=5;fontSize=35;fillColor=#a20025;strokeColor=#6F0000;exitX=-0.012;exitY=0.593;exitDx=0;exitDy=0;exitPerimeter=0;entryX=1;entryY=0.25;entryDx=0;entryDy=0;" parent="1" source="36" target="33" edge="1">
                    <mxGeometry width="50" height="50" relative="1" as="geometry">
                        <mxPoint x="1250" y="410" as="sourcePoint"/>
                        <mxPoint x="1102.8999999999999" y="270.1199999999999" as="targetPoint"/>
                    </mxGeometry>
                </mxCell>
                <mxCell id="42" value="" style="endArrow=classic;html=1;strokeWidth=5;fontSize=35;fillColor=#a20025;strokeColor=#6F0000;exitX=-0.036;exitY=0.545;exitDx=0;exitDy=0;exitPerimeter=0;entryX=1.004;entryY=0.721;entryDx=0;entryDy=0;entryPerimeter=0;" parent="1" source="35" target="29" edge="1">
                    <mxGeometry width="50" height="50" relative="1" as="geometry">
                        <mxPoint x="1260" y="430" as="sourcePoint"/>
                        <mxPoint x="1190" y="380" as="targetPoint"/>
                    </mxGeometry>
                </mxCell>
                <mxCell id="43" value="" style="endArrow=classic;html=1;strokeWidth=5;fontSize=35;fillColor=#a20025;strokeColor=#6F0000;exitX=-0.025;exitY=0.543;exitDx=0;exitDy=0;exitPerimeter=0;" parent="1" source="37" edge="1">
                    <mxGeometry width="50" height="50" relative="1" as="geometry">
                        <mxPoint x="1297.1" y="659.88" as="sourcePoint"/>
                        <mxPoint x="1195" y="752" as="targetPoint"/>
                    </mxGeometry>
                </mxCell>
                <mxCell id="46" value="&lt;b&gt;&lt;i&gt;Individual&lt;br&gt;Properties&lt;/i&gt;&lt;/b&gt;" style="rounded=0;whiteSpace=wrap;html=1;strokeWidth=1;fontSize=35;fillColor=#1ba1e2;fontColor=#ffffff;strokeColor=#006EAF;" parent="1" vertex="1">
                    <mxGeometry x="940" y="160" width="180" height="120" as="geometry"/>
                </mxCell>
                <mxCell id="47" value="&lt;b&gt;&lt;i&gt;Individual&lt;br&gt;Properties&lt;/i&gt;&lt;/b&gt;" style="rounded=0;whiteSpace=wrap;html=1;strokeWidth=1;fontSize=35;fillColor=#1ba1e2;fontColor=#ffffff;strokeColor=#006EAF;" parent="1" vertex="1">
                    <mxGeometry x="940" y="600" width="180" height="120" as="geometry"/>
                </mxCell>
                <mxCell id="49" value="&lt;b&gt;&lt;i&gt;&lt;u&gt;Object&lt;/u&gt;&lt;/i&gt;&lt;/b&gt;" style="rounded=0;whiteSpace=wrap;html=1;strokeWidth=1;fontSize=35;fillColor=#e51400;fontColor=#ffffff;strokeColor=#B20000;" parent="1" vertex="1">
                    <mxGeometry x="1560" y="800" width="120" height="60" as="geometry"/>
                </mxCell>
                <mxCell id="50" value="&lt;b&gt;&lt;i&gt;&lt;u&gt;Class&lt;/u&gt;&lt;/i&gt;&lt;/b&gt;" style="rounded=0;whiteSpace=wrap;html=1;strokeWidth=1;fontSize=35;fillColor=#6a00ff;fontColor=#ffffff;strokeColor=#3700CC;" parent="1" vertex="1">
                    <mxGeometry x="1560" y="880" width="120" height="60" as="geometry"/>
                </mxCell>
                <mxCell id="52" value="&lt;b&gt;&lt;i&gt;&lt;u&gt;Data&lt;/u&gt;&lt;/i&gt;&lt;/b&gt;" style="rounded=0;whiteSpace=wrap;html=1;strokeWidth=1;fontSize=35;fillColor=#d80073;fontColor=#ffffff;strokeColor=#A50040;" parent="1" vertex="1">
                    <mxGeometry x="1560" y="960" width="120" height="60" as="geometry"/>
                </mxCell>
                <mxCell id="53" value="&lt;b&gt;&lt;i&gt;&lt;u&gt;Function&lt;/u&gt;&lt;/i&gt;&lt;/b&gt;" style="rounded=0;whiteSpace=wrap;html=1;strokeWidth=1;fontSize=35;fillColor=#008a00;fontColor=#ffffff;strokeColor=#005700;" parent="1" vertex="1">
                    <mxGeometry x="1540" y="1040" width="160" height="60" as="geometry"/>
                </mxCell>
                <mxCell id="55" value="&lt;b&gt;&lt;i&gt;&lt;u&gt;Child Class/&lt;br&gt;Derived Class&lt;br&gt;&lt;/u&gt;&lt;/i&gt;&lt;/b&gt;" style="rounded=0;whiteSpace=wrap;html=1;strokeWidth=1;fontSize=35;fillColor=#fa6800;fontColor=#000000;strokeColor=#C73500;" vertex="1" parent="1">
                    <mxGeometry x="1275" y="920" width="250" height="100" as="geometry"/>
                </mxCell>
                <mxCell id="57" value="&lt;b&gt;&lt;i&gt;&lt;u&gt;Parent Class/&lt;br&gt;Base Class&lt;br&gt;&lt;/u&gt;&lt;/i&gt;&lt;/b&gt;" style="rounded=0;whiteSpace=wrap;html=1;strokeWidth=1;fontSize=35;fillColor=#0050ef;fontColor=#ffffff;strokeColor=#001DBC;" vertex="1" parent="1">
                    <mxGeometry x="1275" y="800" width="250" height="100" as="geometry"/>
                </mxCell>
            </root>
        </mxGraphModel>
    </diagram>
</mxfile>